0
SECTION
2
HEADER
9
$INSUNITS
70
4
9
$ACADVER
1
AC1014
9
$HANDSEED
5
FFFF
0
ENDSEC
0
SECTION
2
TABLES
0
TABLE
2
VPORT
5
8
100
AcDbSymbolTable
0
ENDTAB
0
TABLE
2
LTYPE
5
5
100
AcDbSymbolTable
0
LTYPE
5
14
100
AcDbSymbolTableRecord
100
AcDbLinetypeTableRecord
2
BYBLOCK
70
0
0
LTYPE
5
15
100
AcDbSymbolTableRecord
100
AcDbLinetypeTableRecord
2
BYLAYER
70
0
0
LTYPE
5
16
100
AcDbSymbolTableRecord
100
AcDbLinetypeTableRecord
2
DASHED
70
0
3
Dashed __ __ __ __ __ __ __ __ __ __ __ __ __ _
72
65
73
2
40
0.75
49
0.5
74
0
49
-0.25
74
0
0
ENDTAB
0
TABLE
2
LAYER
5
2
100
AcDbSymbolTable
70
2
0
LAYER
5
50
100
AcDbSymbolTableRecord
100
AcDbLayerTableRecord
2
0
70
0
62
7
6
CONTINUOUS
0
ENDTAB
0
TABLE
2
STYLE
5
3
100
AcDbSymbolTable
70
1
0
STYLE
5
11
100
AcDbSymbolTableRecord
100
AcDbTextStyleTableRecord
2
STANDARD
70
0
0
ENDTAB
0
TABLE
2
VIEW
5
6
100
AcDbSymbolTable
70
0
0
ENDTAB
0
TABLE
2
UCS
5
7
100
AcDbSymbolTable
70
0
0
ENDTAB
0
TABLE
2
APPID
5
9
100
AcDbSymbolTable
70
2
0
APPID
5
12
100
AcDbSymbolTableRecord
100
AcDbRegAppTableRecord
2
ACAD
70
0
0
ENDTAB
0
TABLE
2
DIMSTYLE
5
A
100
AcDbSymbolTable
70
1
0
ENDTAB
0
TABLE
2
BLOCK_RECORD
5
1
100
AcDbSymbolTable
70
1
0
BLOCK_RECORD
5
1F
100
AcDbSymbolTableRecord
100
AcDbBlockTableRecord
2
*MODEL_SPACE
0
BLOCK_RECORD
5
1B
100
AcDbSymbolTableRecord
100
AcDbBlockTableRecord
2
*PAPER_SPACE
0
ENDTAB
0
ENDSEC
0
SECTION
2
BLOCKS
0
BLOCK
5
20
100
AcDbEntity
100
AcDbBlockBegin
2
*MODEL_SPACE
0
ENDBLK
5
21
100
AcDbEntity
100
AcDbBlockEnd
0
BLOCK
5
1C
100
AcDbEntity
100
AcDbBlockBegin
2
*PAPER_SPACE
0
ENDBLK
5
1D
100
AcDbEntity
100
AcDbBlockEnd
0
ENDSEC
0
SECTION
2
ENTITIES
0
SPLINE
5
100
100
AcDbEntity
8
0
100
AcDbSpline
70
0
71
3
72
8
73
4
74
0
42
0.000000001
43
0.0000000001
44
0.0000000001
40
16
40
16
40
16
40
16
40
17
40
17
40
17
40
17
10
60.759328668632676
20
-100.16725549724242
30
0
10
60.840883045646379
20
-100.22349840790042
30
0
10
60.886869155377724
20
-100.18596741799726
30
0
10
60.913669330273734
20
-100.17599256831289
30
0
0
SPLINE
5
101
100
AcDbEntity
8
0
100
AcDbSpline
70
0
71
3
72
38
73
34
74
0
42
0.000000001
43
0.0000000001
44
0.0000000001
40
5
40
5
40
5
40
5
40
6
40
6
40
6
40
7
40
7
40
7
40
8
40
8
40
8
40
9
40
9
40
9
40
10
40
10
40
10
40
11
40
11
40
11
40
12
40
12
40
12
40
13
40
13
40
13
40
14
40
14
40
14
40
15
40
15
40
15
40
16
40
16
40
16
40
16
10
60.331657574045288
20
-93.289216116264839
30
0
10
60.170361389232312
20
-93.147644593061543
30
0
10
59.916759018439393
20
-93.256486260515288
30
0
10
59.90929390688045
20
-93.471021214447092
30
0
10
59.899290970828488
20
-93.758489045024561
30
0
10
59.839508017168733
20
-94.080635614809026
30
0
10
59.646994123399651
20
-94.258963367942641
30
0
10
58.954037137730893
20
-94.900857102744638
30
0
10
57.600992175457286
20
-94.597072604919816
30
0
10
56.907016383943194
20
-92.115382231345464
30
0
10
56.609424538729243
20
-91.051179666138609
30
0
10
55.903488563167059
20
-90.307804923551629
30
0
10
54.815242290639439
20
-89.930341003575137
30
0
10
53.865476174638587
20
-89.600909651263919
30
0
10
52.463465260232745
20
-89.699181016701615
30
0
10
50.808541913374881
20
-90.292447485221828
30
0
10
50.592477944069962
20
-90.369903343396416
30
0
10
50.196481302801487
20
-90.799939360111338
30
0
10
50.242026183492527
20
-90.848963621377422
30
0
10
50.9991847762413
20
-91.663965002594793
30
0
10
51.999822839350614
20
-92.525400981329824
30
0
10
52.874916549552054
20
-93.217746024366605
30
0
10
53.313295366132188
20
-93.564576917045059
30
0
10
53.888021071353329
20
-93.73434309885829
30
0
10
54.349223748912735
20
-94.058068044636087
30
0
10
55.198091546600622
20
-94.653900837487228
30
0
10
56.4492455940631
20
-95.899093051950715
30
0
10
56.849011477896376
20
-96.249972476590173
30
0
10
57.661280349353817
20
-96.962910838254857
30
0
10
57.579096596901607
20
-97.367120293468261
30
0
10
57.831301860696442
20
-97.588483950123617
30
0
10
58.801276158377902
20
-98.439842300721367
30
0
10
60.642189148698442
20
-100.09511743710861
30
0
10
60.759328668632676
20
-100.16725549724242
30
0
0
LINE
5
102
100
AcDbEntity
8
0
100
AcDbLine
10
60.331657574045288
20
-93.289216116264839
30
0
11
61.868702463699577
21
-94.638298157557458
31
0
0
SPLINE
5
103
100
AcDbEntity
8
0
100
AcDbSpline
70
0
71
3
72
17
73
13
74
0
42
0.000000001
43
0.0000000001
44
0.0000000001
40
0
40
0
40
0
40
0
40
1
40
1
40
1
40
2
40
2
40
2
40
3
40
3
40
3
40
4
40
4
40
4
40
4
10
60.913669330273734
20
-100.17599256831289
30
0
10
60.930727728280296
20
-99.820008779961995
30
0
10
60.437613658275886
20
-98.055890803014108
30
0
10
60.36054283909985
20
-97.414053322721259
30
0
10
60.263245285543348
20
-96.603769777263523
30
0
10
60.59776412270196
20
-96.005353996598302
30
0
10
61.25075211071411
20
-95.500125315293843
30
0
10
61.39595010414142
20
-95.387782987266718
30
0
10
61.579607131872919
20
-95.298039691115534
30
0
10
61.773292178947898
20
-95.21618229853263
30
0
10
62.008596481995248
20
-95.116735299384985
30
0
10
62.06064495650557
20
-94.806768299027027
30
0
10
61.868702463699577
20
-94.638298157557443
30
0
0
SPLINE
5
104
100
AcDbEntity
8
0
100
AcDbSpline
70
0
71
3
72
14
73
10
74
0
42
0.000000001
43
0.0000000001
44
0.0000000001
40
3
40
3
40
3
40
3
40
4
40
4
40
4
40
5
40
5
40
5
40
6
40
6
40
6
40
6
10
54.873367407383654
20
-88.620836372785178
30
0
10
55.851849810259502
20
-88.993843120474992
30
0
10
56.453171955974632
20
-88.528144815659573
30
0
10
56.749093993808629
20
-87.907208591863721
30
0
10
57.277748872157169
20
-86.797926680129791
30
0
10
56.267237457295927
20
-85.93606073536634
30
0
10
55.316700449532867
20
-85.433714829655955
30
0
10
55.186025701816781
20
-85.364654999308712
30
0
10
55.028184095743384
20
-85.375466191653629
30
0
10
54.930659212695609
20
-85.486592557075497
30
0
0
SPLINE
5
105
100
AcDbEntity
8
0
100
AcDbSpline
70
0
71
3
72
11
73
7
74
0
42
0.000000001
43
0.0000000001
44
0.0000000001
40
1
40
1
40
1
40
1
40
2
40
2
40
2
40
3
40
3
40
3
40
3
10
53.499684072153919
20
-87.11714120689507
30
0
10
53.289338398721597
20
-87.356823116170375
30
0
10
53.349577319485888
20
-87.728861702571322
30
0
10
53.62466324085193
20
-87.889951112343425
30
0
10
54.041736809438127
20
-88.134188020802483
30
0
10
54.872787554815837
20
-88.62055257060625
30
0
10
54.873367407383654
20
-88.620836372785178
30
0
0
LINE
5
106
100
AcDbEntity
8
0
100
AcDbLine
10
53.499684072153919
20
-87.11714120689507
30
0
11
54.930659212695609
21
-85.486592557075497
31
0
0
SPLINE
5
107
100
AcDbEntity
8
0
100
AcDbSpline
70
0
71
3
72
16
73
12
74
0
42
0.000000001
43
0.0000000001
44
0.0000000001
40
0
40
0
40
0
40
0
40
0.019532223669347024
40
0.019532223669347024
40
0.039064447338693416
40
0.039064447338693416
40
0.058596671008040523
40
0.058596671008040523
40
0.07623653149170681
40
0.07623653149170681
40
0.093876391975373674
40
0.093876391975373674
40
0.093876391975373674
40
0.093876391975373674
10
66.692794966009814
20
-80.483630227290334
30
0
10
66.650332795667993
20
-80.532985280409903
30
0
10
66.598640271119308
20
-80.573577040318938
30
0
10
66.482613748014373
20
-80.632664396820033
30
0
10
66.419389026258344
20
-80.650595086078823
30
0
10
66.289634122346669
20
-80.661211957149149
30
0
10
66.22434446779431
20
-80.653796635886579
30
0
10
66.106300095516474
20
-80.616263971816323
30
0
10
66.053864072747871
20
-80.588708308695573
30
0
10
65.96098407807311
20
-80.516645367206678
30
0
10
65.921264041150039
20
-80.472699769365249
30
0
10
65.890092993064712
20
-80.422863651496726
30
0
0
SPLINE
5
108
100
AcDbEntity
8
0
100
AcDbSpline
70
0
71
3
72
50
73
46
74
0
42
0.000000001
43
0.0000000001
44
0.0000000001
40
6
40
6
40
6
40
6
40
7
40
7
40
7
40
8
40
8
40
8
40
9
40
9
40
9
40
10
40
10
40
10
40
11
40
11
40
11
40
12
40
12
40
12
40
13
40
13
40
13
40
14
40
14
40
14
40
15
40
15
40
15
40
16
40
16
40
16
40
17
40
17
40
17
40
18
40
18
40
18
40
19
40
19
40
19
40
20
40
20
40
20
40
20.767254221047168
40
20.767254221047168
40
20.767254221047168
40
20.767254221047168
10
65.964245946384366
20
-87.282784276223296
30
0
10
65.933310393333926
20
-87.252991965777071
30
0
10
65.86885369184175
20
-87.186132206470148
30
0
10
65.799447244090047
20
-87.12488308754007
30
0
10
65.445523458426436
20
-86.812555908401819
30
0
10
65.090390780851678
20
-86.501599505515884
30
0
10
64.735538090667148
20
-86.190325417448179
30
0
10
64.420581242376059
20
-85.914047659256426
30
0
10
64.389917335369674
20
-85.886869537208128
30
0
10
64.129562798760247
20
-86.137069162725922
30
0
10
63.795970323180455
20
-86.457650142617013
30
0
10
63.463190193284234
20
-86.77989513407546
30
0
10
63.151893675619768
20
-87.122171879336378
30
0
10
62.766020861979548
20
-87.546446753108555
30
0
10
62.306548082177258
20
-87.763280132739325
30
0
10
61.737751747381118
20
-87.660273749983801
30
0
10
61.360080508887485
20
-87.591879237276629
30
0
10
60.994203000262964
20
-87.477799209376897
30
0
10
60.849327162663357
20
-87.066160171866869
30
0
10
60.688322717046191
20
-86.608694550775169
30
0
10
60.726484556688625
20
-86.155280506272419
30
0
10
61.053063378844769
20
-85.789498649858245
30
0
10
61.265675481716031
20
-85.551364486708664
30
0
10
61.539436534962924
20
-85.356987008500198
30
0
10
61.813117204649458
20
-85.187005232629701
30
0
10
62.147299085149761
20
-84.979446546569264
30
0
10
62.522198124286035
20
-84.837503953791639
30
0
10
62.856519680672378
20
-84.630134021525492
30
0
10
63.105164085922276
20
-84.475907132800913
30
0
10
63.318650242503935
20
-84.264388862868174
30
0
10
63.545293714433427
20
-84.075388740499932
30
0
10
63.849479117415072
20
-83.821725672701248
30
0
10
63.929328925652072
20
-83.482667434721108
30
0
10
63.880279308594851
20
-83.11078377174988
30
0
10
63.816101978672116
20
-82.62420503855536
30
0
10
63.732849567465514
20
-82.140160247968907
30
0
10
63.658983154984782
20
-81.654844504057152
30
0
10
63.638711192847822
20
-81.521654031491153
30
0
10
63.614280115034603
20
-81.388334531965
30
0
10
63.606054685343302
20
-81.254193243603396
30
0
10
63.557971767163473
20
-80.470051279608299
30
0
10
63.877852106520557
20
-80.0220130923488
30
0
10
64.560161251149268
20
-79.910223007105472
30
0
10
65.161730440740428
20
-79.811661421769045
30
0
10
65.621182686865552
20
-79.992931180855649
30
0
10
65.890092993064741
20
-80.422863651496726
30
0
0
SPLINE
5
109
100
AcDbEntity
8
0
100
AcDbSpline
70
0
71
3
72
14
73
10
74
0
42
0.000000001
43
0.0000000001
44
0.0000000001
40
3
40
3
40
3
40
3
40
4
40
4
40
4
40
5
40
5
40
5
40
6
40
6
40
6
40
6
10
60.958471217379582
20
-89.202493491534867
30
0
10
61.367000844352127
20
-89.60728487162875
30
0
10
61.686241016439382
20
-89.683331435491738
30
0
10
62.395387151206648
20
-89.644504224391696
30
0
10
62.828669106254161
20
-89.620781145170525
30
0
10
64.38496169681332
20
-89.166111595035716
30
0
10
64.884646883935943
20
-88.522207204886257
30
0
10
65.213047504241274
20
-88.099023555276688
30
0
10
65.587757874167409
20
-87.711779931308001
30
0
10
65.964245946384366
20
-87.282784276223296
30
0
0
LINE
5
110
100
AcDbEntity
8
0
100
AcDbLine
10
60.958471217379582
20
-89.202493491534867
30
0
11
60.94847887243759
21
-89.19261406203843
31
0
0
SPLINE
5
111
100
AcDbEntity
8
0
100
AcDbSpline
70
0
71
3
72
8
73
4
74
0
42
0.000000001
43
0.0000000001
44
0.0000000001
40
1.2670522509687048
40
1.2670522509687048
40
1.2670522509687048
40
1.2670522509687048
40
2
40
2
40
2
40
2
10
59.477522706498448
20
-88.915651709418142
30
0
10
59.961667090784623
20
-88.706920708006507
30
0
10
60.547183847492043
20
-88.795853749105405
30
0
10
60.948478872437597
20
-89.192614062038416
30
0
0
SPLINE
5
112
100
AcDbEntity
8
0
100
AcDbSpline
70
0
71
3
72
18
73
14
74
0
42
0.000000001
43
0.0000000001
44
0.0000000001
40
0
40
0
40
0
40
0
40
0.019532223669346128
40
0.019532223669346128
40
0.039064447338692632
40
0.039064447338692632
40
0.058596671008038663
40
0.058596671008038663
40
0.078128894677386304
40
0.078128894677386304
40
0.094272475379499149
40
0.094272475379499149
40
0.11041605608161226
40
0.11041605608161226
40
0.11041605608161226
40
0.11041605608161226
10
59.477522706498462
20
-88.915651709418157
30
0
10
59.417740582295266
20
-88.941425802966393
30
0
10
59.35350023142712
20
-88.955277163262309
30
0
10
59.223334869802997
20
-88.95757511427604
30
0
10
59.158654310849741
20
-88.94599973532965
30
0
10
59.037378786089164
20
-88.898703355272986
30
0
10
58.981943280398816
20
-88.863434533334555
30
0
10
58.887717379173893
20
-88.773625978099133
30
0
10
58.849827834612121
20
-88.71994486353961
30
0
10
58.80136422005009
20
-88.61138367229583
30
0
10
58.787508025808528
20
-88.559036105310696
30
0
10
58.777014708997079
20
-88.451942057552458
30
0
10
58.780446066098179
20
-88.39789447544851
30
0
10
58.792422810991489
20
-88.345435364935923
30
0
0
SPLINE
5
113
100
AcDbEntity
8
0
100
AcDbSpline
70
0
71
3
72
29
73
25
74
0
42
0.000000001
43
0.0000000001
44
0.0000000001
40
33
40
33
40
33
40
33
40
34
40
34
40
34
40
35
40
35
40
35
40
36
40
36
40
36
40
37
40
37
40
37
40
38
40
38
40
38
40
39
40
39
40
39
40
40
40
40
40
40
40
40.9003552638519
40
40.9003552638519
40
40.9003552638519
40
40.9003552638519
10
60.259202540248722
20
-79.429636896030601
30
0
10
59.98816695156939
20
-79.738472948211694
30
0
10
60.051326345810608
20
-80.221518737018499
30
0
10
60.40002971553146
20
-80.438608734472467
30
0
10
61.124033800699735
20
-80.889347266570638
30
0
10
61.577173506497822
20
-81.421606081355108
30
0
10
61.753726964119011
20
-82.060599563673463
30
0
10
61.90183230903105
20
-82.596631830443258
30
0
10
61.711177497778849
20
-83.07673599964329
30
0
10
61.242100329955768
20
-83.390914719162993
30
0
10
60.831622637494434
20
-83.665844655334141
30
0
10
60.414393845294249
20
-83.644906632040019
30
0
10
59.961389942483009
20
-83.298626146272454
30
0
10
59.625141510033998
20
-83.041594650948809
30
0
10
58.945778916707418
20
-82.36805958810713
30
0
10
58.423996088805922
20
-82.198768868665312
30
0
10
57.67281139994958
20
-81.955049471226488
30
0
10
56.626786520858097
20
-83.084692515114597
30
0
10
56.63246968482877
20
-83.80269839151056
30
0
10
56.63808702477985
20
-84.512388119915229
30
0
10
57.072560354691447
20
-85.04350894275639
30
0
10
57.623703605414605
20
-85.462314931846763
30
0
10
58.733038394678935
20
-86.305281859494187
30
0
10
59.073276988015394
20
-87.115271372827806
30
0
10
58.792422810991489
20
-88.345435364935909
30
0
0
LINE
5
114
100
AcDbEntity
8
0
100
AcDbLine
10
60.259202540248722
20
-79.429636896030601
30
0
11
60.501088623352089
21
-79.154015737395326
31
0
0
SPLINE
5
115
100
AcDbEntity
8
0
100
AcDbSpline
70
0
71
3
72
35
73
31
74
0
42
0.000000001
43
0.0000000001
44
0.0000000001
40
22.644042112156697
40
22.644042112156697
40
22.644042112156697
40
22.644042112156697
40
23
40
23
40
23
40
24
40
24
40
24
40
25
40
25
40
25
40
26
40
26
40
26
40
27
40
27
40
27
40
28
40
28
40
28
40
29
40
29
40
29
40
30
40
30
40
30
40
31
40
31
40
31
40
32
40
32
40
32
40
32
10
66.692794966009814
20
-80.483630227290348
30
0
10
66.78854238528983
20
-80.372340132446311
30
0
10
66.881594941223241
20
-80.261397632891232
30
0
10
66.972036643872855
20
-80.14836561101346
30
0
10
67.001658052411301
20
-80.111345434049511
30
0
10
66.941865390028241
20
-79.956355835216769
30
0
10
66.881929549301887
20
-79.901570629257336
30
0
10
66.34324417366571
20
-79.409177615429641
30
0
10
65.785747447670929
20
-78.937358544856323
30
0
10
65.241686067247173
20
-78.450855036094623
30
0
10
64.57895860863681
20
-77.858239486512247
30
0
10
63.906745610678371
20
-77.276371746983799
30
0
10
63.235833293587433
20
-76.693039809618014
30
0
10
62.892681387647251
20
-76.394682690507793
30
0
10
62.911356656850657
20
-76.373445694412169
30
0
10
62.640976130366575
20
-76.680240662331954
30
0
10
62.590003779885485
20
-76.738077865184877
30
0
10
62.544770035784929
20
-76.802377496939286
30
0
10
62.487383696464789
20
-76.852891742127994
30
0
10
62.314287003585342
20
-77.00526016693118
30
0
10
62.281731964028559
20
-77.160725749196899
30
0
10
62.383043514898361
20
-77.384652806479892
30
0
10
62.576872452674365
20
-77.813069342204059
30
0
10
62.617105669616393
20
-78.249921181634775
30
0
10
62.233615355499509
20
-78.61087894698413
30
0
10
61.970548427650478
20
-78.858488685364975
30
0
10
61.709238380185397
20
-78.939198922929961
30
0
10
61.369468957447154
20
-78.863250549383238
30
0
10
61.049976536686117
20
-78.791834677048854
30
0
10
60.717093955445648
20
-78.907884835033443
30
0
10
60.501088623352103
20
-79.154015737395326
30
0
0
SPLINE
5
116
100
AcDbEntity
8
0
100
AcDbSpline
70
0
71
3
72
41
73
37
74
0
42
0.000000001
43
0.0000000001
44
0.0000000001
40
0
40
0
40
0
40
0
40
1
40
1
40
1
40
2
40
2
40
2
40
3
40
3
40
3
40
4
40
4
40
4
40
5
40
5
40
5
40
6
40
6
40
6
40
7
40
7
40
7
40
8
40
8
40
8
40
9
40
9
40
9
40
10
40
10
40
10
40
11
40
11
40
11
40
12
40
12
40
12
40
12
10
77.174875513948606
20
-88.934224316334308
30
0
10
76.869842399338808
20
-88.665576750796646
30
0
10
76.433881143019548
20
-88.578598814403591
30
0
10
76.063346709687906
20
-88.745957066583685
30
0
10
75.758483918192638
20
-88.88365359179187
30
0
10
75.395919018589808
20
-88.909362579600781
30
0
10
75.034698291870768
20
-88.664110723095334
30
0
10
73.843322712523218
20
-87.855222829855379
30
0
10
73.082179832835109
20
-87.337457612645736
30
0
10
71.953779168531369
20
-88.249632408227129
30
0
10
70.962493735421702
20
-89.050966203848091
30
0
10
69.523710017311714
20
-90.666909203094846
30
0
10
68.766149413121354
20
-91.549023129831824
30
0
10
68.575662415997044
20
-91.770828794087862
30
0
10
68.755649637406179
20
-92.109842112292029
30
0
10
69.046342834021544
20
-92.079056071577767
30
0
10
70.102265134199456
20
-91.967227974798433
30
0
10
71.136717626960603
20
-91.791451489300826
30
0
10
72.056517127116464
20
-91.114798063925164
30
0
10
72.820561973759709
20
-90.552726044388152
30
0
10
73.21321241321219
20
-90.626254276228195
30
0
10
73.990896592782747
20
-91.197708165651903
30
0
10
74.39332163877198
20
-91.493416068388299
30
0
10
74.800038161038287
20
-91.783543835781217
30
0
10
75.210657383364065
20
-92.067750823306227
30
0
10
75.447823065196729
20
-92.231903255323914
30
0
10
75.630676628811017
20
-92.176025314918078
30
0
10
75.823097994739214
20
-91.947701812094138
30
0
10
76.431701530180675
20
-91.225544527882363
30
0
10
77.059020223532599
20
-90.518888422541551
30
0
10
77.69035507141308
20
-89.816351550260123
30
0
10
77.85301308556906
20
-89.635348944590135
30
0
10
77.875188325845343
20
-89.520077281790208
30
0
10
77.669002916413476
20
-89.353673897888285
30
0
10
77.501037433973835
20
-89.218116174702672
30
0
10
77.337321281071681
20
-89.077292913739313
30
0
10
77.174875513948606
20
-88.934224316334308
30
0
0
SPLINE
5
117
100
AcDbEntity
8
0
100
AcDbSpline
70
0
71
3
72
35
73
31
74
0
42
0.000000001
43
0.0000000001
44
0.0000000001
40
22
40
22
40
22
40
22
40
23
40
23
40
23
40
24
40
24
40
24
40
25
40
25
40
25
40
26
40
26
40
26
40
27
40
27
40
27
40
28
40
28
40
28
40
29
40
29
40
29
40
30
40
30
40
30
40
31
40
31
40
31
40
32
40
32
40
32
40
32
10
80.99674642414243
20
-94.396995377211766
30
0
10
80.742419296330127
20
-93.872901358796724
30
0
10
80.34635281123839
20
-93.324690291415934
30
0
10
79.864786053135077
20
-93.055824206092637
30
0
10
79.348344691061271
20
-92.767487096059625
30
0
10
78.609558531714498
20
-92.790641714141344
30
0
10
77.554818054715838
20
-93.423296278755927
30
0
10
76.385629515480304
20
-94.124599094351694
30
0
10
75.064099215614576
20
-94.259229952672939
30
0
10
73.748991644820464
20
-94.179890307064568
30
0
10
72.503687736860371
20
-94.104761968507873
30
0
10
71.267015604001116
20
-93.879426871858612
30
0
10
70.028215089298754
20
-93.708133766689215
30
0
10
69.351995637691971
20
-93.614630633402612
30
0
10
68.742047828597762
20
-93.689429867741808
30
0
10
68.271580514999997
20
-94.253488231734281
30
0
10
67.91540093474778
20
-94.680523363650693
30
0
10
67.81858953592382
20
-95.158778888609902
30
0
10
67.968358169161263
20
-95.685458252051504
30
0
10
68.343864301263025
20
-97.005970607326987
30
0
10
69.644407992654862
20
-97.521474965217806
30
0
10
67.77667875463527
20
-99.165812007362447
30
0
10
66.843057063083293
20
-99.987766656632971
30
0
10
66.865758731832557
20
-101.61215086112415
30
0
10
67.652044369799881
20
-102.58794968959197
30
0
10
68.973342418263243
20
-104.2277114065685
30
0
10
74.778019116123545
20
-107.0660375977271
30
0
10
75.570286460962265
20
-107.02300348038568
30
0
10
76.46223841545806
20
-106.97455472716712
30
0
10
77.179414492592443
20
-105.65641109641346
30
0
10
77.824533911987601
20
-104.68258024218834
30
0
0
SPLINE
5
118
100
AcDbEntity
8
0
100
AcDbSpline
70
0
71
3
72
14
73
10
74
0
42
0.000000001
43
0.0000000001
44
0.0000000001
40
19
40
19
40
19
40
19
40
20
40
20
40
20
40
21
40
21
40
21
40
22
40
22
40
22
40
22
10
84.355185091594379
20
-95.262345800157092
30
0
10
84.02934967711245
20
-94.976356056198
30
0
10
83.540906099737697
20
-94.964364392017316
30
0
10
83.209778690395254
20
-95.244432829893967
30
0
10
82.96305961739337
20
-95.453108473832359
30
0
10
82.622704766857552
20
-95.619978357479766
30
0
10
82.199076380112501
20
-95.540048301562337
30
0
10
81.603345091383915
20
-95.427645930262685
30
0
10
81.279369937129488
20
-94.878327898447964
30
0
10
80.99674642414243
20
-94.396995377211766
30
0
0
LINE
5
119
100
AcDbEntity
8
0
100
AcDbLine
10
84.355185091594379
20
-95.262345800157092
30
0
11
85.526170376488849
21
-96.290133962286376
31
0
0
SPLINE
5
120
100
AcDbEntity
8
0
100
AcDbSpline
70
0
71
3
72
8
73
4
74
0
42
0.000000001
43
0.0000000001
44
0.0000000001
40
17
40
17
40
17
40
17
40
18
40
18
40
18
40
18
10
85.377539994522408
20
-96.639691799934496
30
0
10
85.569683050664594
20
-96.655758316980936
30
0
10
85.671068852584767
20
-96.417313133847031
30
0
10
85.526170376488849
20
-96.290133962286376
30
0
0
SPLINE
5
121
100
AcDbEntity
8
0
100
AcDbSpline
70
0
71
3
72
35
73
31
74
0
42
0.000000001
43
0.0000000001
44
0.0000000001
40
6
40
6
40
6
40
6
40
7
40
7
40
7
40
8
40
8
40
8
40
9
40
9
40
9
40
10
40
10
40
10
40
11
40
11
40
11
40
12
40
12
40
12
40
13
40
13
40
13
40
14
40
14
40
14
40
15
40
15
40
15
40
16
40
16
40
16
40
16
10
73.737367594952275
20
-98.748392242405174
30
0
10
72.874253000057735
20
-99.340110692733404
30
0
10
72.477249477587662
20
-101.09164099807509
30
0
10
72.284043786160893
20
-101.48666486643656
30
0
10
72.111005215388303
20
-101.84045550840759
30
0
10
71.833133678626666
20
-102.07746572753456
30
0
10
71.433356731063043
20
-102.23335866691082
30
0
10
70.676325207306917
20
-102.52856295559724
30
0
10
69.5835018619251
20
-101.80472074794254
30
0
10
69.856356230416878
20
-100.38770497303915
30
0
10
70.135251392824671
20
-98.93931751689793
30
0
10
71.595746242298446
20
-97.384294597819292
30
0
10
72.483972916652604
20
-97.186081134819091
30
0
10
73.578604126167477
20
-96.941807179744259
30
0
10
76.159613079815884
20
-96.888472584201168
30
0
10
77.57639413412808
20
-96.202529704265928
30
0
10
78.437073253729963
20
-95.785826846612977
30
0
10
79.216529307458629
20
-95.454535577427436
30
0
10
79.811827810860393
20
-96.089861873919418
30
0
10
80.09908066479754
20
-96.396429571983219
30
0
10
80.089954011740403
20
-97.227884773176243
30
0
10
80.055714572240504
20
-97.721186331028974
30
0
10
80.041940265868888
20
-97.919638376113852
30
0
10
80.212953432412789
20
-98.080416356278334
30
0
10
80.409931888458487
20
-98.052738402790141
30
0
10
81.012222042254351
20
-97.968109051955224
30
0
10
82.790831938152948
20
-97.76435794927076
30
0
10
83.28944748656636
20
-97.416780458609495
30
0
10
83.926279086689533
20
-96.972854611836524
30
0
10
84.564289860809339
20
-96.573584376802373
30
0
10
85.377539390044731
20
-96.639691749389868
30
0
0
SPLINE
5
122
100
AcDbEntity
8
0
100
AcDbSpline
70
0
71
3
72
11
73
7
74
0
42
0.000000001
43
0.0000000001
44
0.0000000001
40
4
40
4
40
4
40
4
40
5
40
5
40
5
40
6
40
6
40
6
40
6
10
76.788785556095249
20
-100.63951163068415
30
0
10
77.297755984310925
20
-99.949377038007313
30
0
10
77.119842369262287
20
-98.981239818221383
30
0
10
76.39949264979083
20
-98.512185863797896
30
0
10
75.59667537684804
20
-97.989433195159904
30
0
10
74.56743688317917
20
-98.086583951449057
30
0
10
73.737367594952275
20
-98.748392242405174
30
0
0
SPLINE
5
123
100
AcDbEntity
8
0
100
AcDbSpline
70
0
71
3
72
17
73
13
74
0
42
0.000000001
43
0.0000000001
44
0.0000000001
40
0
40
0
40
0
40
0
40
1
40
1
40
1
40
2
40
2
40
2
40
3
40
3
40
3
40
4
40
4
40
4
40
4
10
77.824533911987601
20
-104.68258024218834
30
0
10
77.212106307625405
20
-104.65109159337344
30
0
10
75.313699694684232
20
-104.545153468815
30
0
10
74.894158277775148
20
-104.49037094825569
30
0
10
74.179128414346692
20
-104.39700438987765
30
0
10
73.799426793249154
20
-103.98740488299872
30
0
10
73.705997105364048
20
-103.32146644832606
30
0
10
73.627058134982889
20
-102.75881344627575
30
0
10
73.913952390665514
20
-102.08921588157386
30
0
10
74.61054977309297
20
-101.8855698810839
30
0
10
75.315058899426106
20
-101.67961093046836
30
0
10
76.513880370696938
20
-101.26850359306002
30
0
10
76.788785556095249
20
-100.63951163068415
30
0
0
SPLINE
5
124
100
AcDbEntity
8
0
100
AcDbSpline
70
0
71
3
72
20
73
16
74
0
42
0.000000001
43
0.0000000001
44
0.0000000001
40
0
40
0
40
0
40
0
40
0.019532223669346978
40
0.019532223669346978
40
0.039064447338692666
40
0.039064447338692666
40
0.058596671008039752
40
0.058596671008039752
40
0.078128894677385319
40
0.078128894677385319
40
0.097661118346731898
40
0.097661118346731898
40
0.11603030435938866
40
0.11603030435938866
40
0.13439949037204529
40
0.13439949037204529
40
0.13439949037204529
40
0.13439949037204529
10
71.6535580284811
20
-107.13887523280782
30
0
10
71.70706777675953
20
-107.17592498666662
30
0
10
71.752826540547829
20
-107.22307572251692
30
0
10
71.823690851938807
20
-107.33227121112827
30
0
10
71.848118898100537
20
-107.39327199550209
30
0
10
71.872216808418159
20
-107.52121254191164
30
0
10
71.871656283417011
20
-107.58692912259072
30
0
10
71.845379373637954
20
-107.71445692035648
30
0
10
71.819914210439521
20
-107.7750489021885
30
0
10
71.747197182779516
20
-107.88306794981506
30
0
10
71.700640532736188
20
-107.92946229463934
30
0
10
71.595595428875015
20
-107.99964423542812
30
0
10
71.538870648189231
20
-108.02402007592212
30
0
10
71.419451860905014
20
-108.0510634568723
30
0
10
71.357767365856034
20
-108.05350238501353
30
0
10
71.297184465693391
20
-108.04473690207978
30
0
0
SPLINE
5
125
100
AcDbEntity
8
0
100
AcDbSpline
70
0
71
3
72
26
73
22
74
0
42
0.000000001
43
0.0000000001
44
0.0000000001
40
1.1033705013889037
40
1.1033705013889037
40
1.1033705013889037
40
1.1033705013889037
40
2
40
2
40
2
40
3
40
3
40
3
40
4
40
4
40
4
40
5
40
5
40
5
40
6
40
6
40
6
40
7
40
7
40
7
40
7.6134988055363397
40
7.6134988055363397
40
7.6134988055363397
40
7.6134988055363397
10
71.6535580284811
20
-107.13887523280783
30
0
10
70.5015807986467
20
-106.34125472085508
30
0
10
68.441556628227943
20
-104.70037416804502
30
0
10
65.977351600586118
20
-102.90812279124836
30
0
10
64.351963308760659
20
-101.72595476091971
30
0
10
63.877447757966472
20
-100.62648359841468
30
0
10
66.32171912122719
20
-98.603337515047883
30
0
10
67.214837964462163
20
-97.86409476286012
30
0
10
67.374779780819352
20
-96.011227320132463
30
0
10
65.407869478558581
20
-95.664430635402695
30
0
10
64.496380826276877
20
-95.503721099022016
30
0
10
63.351216835590975
20
-96.083844346139188
30
0
10
62.963591515331728
20
-96.846803420628021
30
0
10
62.426727661801579
20
-97.903507220427514
30
0
10
62.001728743581808
20
-100.27739714342032
30
0
10
62.18858474094921
20
-101.40668770180029
30
0
10
62.29039427192339
20
-102.02198795280577
30
0
10
68.314369965692308
20
-106.90023015753552
30
0
10
69.43627335102542
20
-107.44840075917971
30
0
10
70.064127332758744
20
-107.75517503173373
30
0
10
70.663146284446881
20
-107.95300060615889
30
0
10
71.297184465693391
20
-108.04473690207978
30
0
0
SPLINE
5
126
100
AcDbEntity
8
0
100
AcDbSpline
70
0
71
3
72
14
73
10
74
0
42
0.000000001
43
0.0000000001
44
0.0000000001
40
2
40
2
40
2
40
2
40
3
40
3
40
3
40
4
40
4
40
4
40
5
40
5
40
5
40
5
10
77.507526332443121
20
-101.81552167010204
30
0
10
77.410597609938335
20
-102.48505954964274
30
0
10
77.650169957958639
20
-103.01159743192714
30
0
10
78.139663990882781
20
-103.47121494907464
30
0
10
78.226056776472831
20
-103.55233470731827
30
0
10
78.367966665707797
20
-103.51328273021126
30
0
10
78.404709008271894
20
-103.40057533070959
30
0
10
78.732862469581079
20
-102.39396223310898
30
0
10
78.787351110203119
20
-101.40110398173121
30
0
10
78.599953932487793
20
-100.35300604718343
30
0
0
SPLINE
5
127
100
AcDbEntity
8
0
100
AcDbSpline
70
0
71
3
72
11
73
7
74
0
42
0.000000001
43
0.0000000001
44
0.0000000001
40
0
40
0
40
0
40
0
40
1
40
1
40
1
40
2
40
2
40
2
40
2
10
78.599953932487793
20
-100.35300604718343
30
0
10
78.575870818034176
20
-100.21831104897979
30
0
10
78.404548250762474
20
-100.17151563865204
30
0
10
78.316378579389863
20
-100.27618533063938
30
0
10
77.919022581714586
20
-100.74790229678501
30
0
10
77.594445855342414
20
-101.21514599573337
30
0
10
77.507526332443121
20
-101.81552167010204
30
0
0
ENDSEC
0
SECTION
2
OBJECTS
0
DICTIONARY
5
C
100
AcDbDictionary
3
ACAD_GROUP
350
D
3
ACAD_MLINESTYLE
350
17
0
DICTIONARY
5
D
100
AcDbDictionary
0
DICTIONARY
5
1A
330
C
100
AcDbDictionary
0
DICTIONARY
5
17
100
AcDbDictionary
0
ENDSEC
0
EOF
